<svg xmlns="http://www.w3.org/2000/svg" viewBox="0 0 720 180" role="img" aria-labelledby="title desc">
  <title id="title">CoastPulse logo, reverse</title>
  <desc id="desc">A white coastal wave symbol beside the CoastPulse wordmark for dark backgrounds.</desc>
  <rect width="720" height="180" fill="#005F6B" />
  <g transform="translate(28 30)">
    <circle cx="139" cy="34" r="16" fill="#F2B85C" />
    <path d="M10 98 C33 68 62 53 96 53 C130 53 153 69 174 94 L161 110 C143 91 124 81 99 81 C71 81 47 93 27 116 C20 124 7 119 4 108 C3 104 5 100 10 98 Z" fill="#fff" />
    <path d="M18 116 H81 C100 116 114 106 126 92 C133 84 148 87 151 98 C154 110 147 124 134 132 C118 142 96 143 75 137 C52 130 33 131 18 143 Z" fill="#1FA5B0" />
    <path d="M118 130 C134 130 148 124 160 112 C163 119 162 127 155 135 C145 147 127 152 105 148 C111 139 115 134 118 130 Z" fill="#fff" />
  </g>
  <text x="230" y="113" font-size="72" fill="#fff" font-family="Poppins, Montserrat, Avenir Next, Arial, sans-serif" font-weight="700" letter-spacing="-1.5">CoastPulse</text>
</svg>
